<?xml version="1.0" encoding="iso-8859-1"?>
<!-- Generator: Adobe Illustrator 16.0.0, SVG Export Plug-In . SVG Version: 6.00 Build 0)  -->
<!DOCTYPE svg PUBLIC "-//W3C//DTD SVG 1.1//EN" "http://www.w3.org/Graphics/SVG/1.1/DTD/svg11.dtd">
<svg xmlns="http://www.w3.org/2000/svg" xmlns:xlink="http://www.w3.org/1999/xlink" version="1.1" id="Capa_1" x="0px" y="0px" width="512px" height="512px" viewBox="0 0 65.25 65.25" style="enable-background:new 0 0 65.25 65.25;" xml:space="preserve">
<g>
	<path d="M58.742,30.439c1.93,0,3.5-1.57,3.5-3.5c0-1.93-1.57-3.5-3.5-3.5s-3.5,1.57-3.5,3.5   C55.242,28.869,56.812,30.439,58.742,30.439z M58.742,25.439c0.826,0,1.5,0.673,1.5,1.5c0,0.827-0.674,1.5-1.5,1.5   c-0.827,0-1.5-0.673-1.5-1.5C57.242,26.112,57.915,25.439,58.742,25.439z" fill="#556080"/>
	<path d="M60.25,9.252H5c-2.757,0-5,2.243-5,5v25.375c0,2.757,2.243,5,5,5h13.985c2.531,3.64,6.611,5.812,11.056,5.812   c3.291,0,6.378-1.201,8.794-3.291l8.56,8.557c0.194,0.195,0.451,0.293,0.707,0.293s0.512-0.098,0.707-0.293   c0.391-0.391,0.391-1.022,0-1.413l-8.557-8.556c0.301-0.351,0.577-0.726,0.846-1.109H60.25c2.757,0,5-2.243,5-5V14.252   C65.25,11.495,63.007,9.252,60.25,9.252z M34.666,37.939h-3.625v3.625c0,0.551-0.447,1-1,1s-1-0.449-1-1v-3.625h-3.625   c-0.553,0-1-0.449-1-1c0-0.553,0.447-1,1-1h3.625v-3.625c0-0.553,0.447-1,1-1s1,0.448,1,1v3.625h3.625c0.553,0,1,0.447,1,1   C35.666,37.49,35.219,37.939,34.666,37.939z M63.25,39.627c0,1.654-1.346,3-3,3H42.275c0.011-0.021,0.017-0.042,0.025-0.062   c0.178-0.387,0.336-0.781,0.477-1.182c0.033-0.096,0.062-0.191,0.095-0.289c0.122-0.375,0.229-0.752,0.319-1.136   c0.011-0.046,0.023-0.091,0.033-0.136c0.094-0.418,0.159-0.844,0.211-1.271c0.014-0.103,0.022-0.203,0.032-0.306   c0.044-0.434,0.072-0.869,0.072-1.309c0-7.444-6.056-13.5-13.5-13.5c-7.444,0-13.5,6.056-13.5,13.5   c0,0.438,0.029,0.875,0.072,1.309c0.01,0.103,0.02,0.203,0.032,0.306c0.052,0.427,0.118,0.853,0.211,1.271   c0.01,0.045,0.023,0.09,0.034,0.136c0.089,0.383,0.197,0.761,0.319,1.136c0.031,0.096,0.062,0.193,0.095,0.289   c0.141,0.4,0.298,0.795,0.476,1.182c0.01,0.021,0.016,0.043,0.025,0.062H5c-1.654,0-3-1.346-3-3V14.252c0-1.654,1.346-3,3-3h55.25   c1.654,0,3,1.346,3,3V39.627z" fill="#556080"/>
</g>
<g>
</g>
<g>
</g>
<g>
</g>
<g>
</g>
<g>
</g>
<g>
</g>
<g>
</g>
<g>
</g>
<g>
</g>
<g>
</g>
<g>
</g>
<g>
</g>
<g>
</g>
<g>
</g>
<g>
</g>
</svg>
