<?xml version="1.0" standalone="no"?>
<!DOCTYPE svg PUBLIC "-//W3C//DTD SVG 20010904//EN"
 "http://www.w3.org/TR/2001/REC-SVG-20010904/DTD/svg10.dtd">
<svg version="1.0" xmlns="http://www.w3.org/2000/svg"
 width="120.000000pt" height="91.000000pt" viewBox="0 0 120.000000 91.000000"
 preserveAspectRatio="xMidYMid meet">

<g transform="translate(0.000000,91.000000) scale(0.100000,-0.100000)"
fill="#000000" stroke="none">
<path d="M210 820 l0 -60 35 0 c33 0 35 -2 34 -32 -1 -18 -3 -25 -6 -15 -4 15
-18 17 -119 17 l-114 0 0 -65 0 -65 114 0 c101 0 115 2 119 18 3 9 5 -64 5
-163 0 -99 -2 -172 -5 -162 -4 15 -18 17 -119 17 l-114 0 0 -65 0 -65 114 0
c101 0 115 2 119 18 3 9 5 2 6 -15 1 -31 -1 -33 -34 -33 l-35 0 0 -60 0 -60
390 0 390 0 0 60 c0 57 -1 60 -25 60 -22 0 -25 4 -24 33 1 17 3 24 6 15 4 -16
18 -18 119 -18 l114 0 0 65 0 65 -114 0 c-101 0 -115 -2 -119 -17 -3 -10 -5
63 -5 162 0 99 2 172 5 163 4 -16 18 -18 119 -18 l114 0 0 65 0 65 -114 0
c-101 0 -115 -2 -119 -17 -3 -10 -5 -3 -6 15 -1 28 2 32 24 32 24 0 25 3 25
60 l0 60 -390 0 -390 0 0 -60z m760 25 c0 -13 -48 -15 -370 -15 -322 0 -370 2
-370 15 0 13 48 15 370 15 322 0 370 -2 370 -15z m0 -50 c0 -13 -48 -15 -370
-15 -322 0 -370 2 -370 15 0 13 48 15 370 15 322 0 370 -2 370 -15z m-50 -340
l0 -305 -310 0 -310 0 0 305 0 305 310 0 310 0 0 -305z m-716 249 c22 -8 22
-70 0 -78 -23 -9 -105 -6 -129 4 -16 7 -13 9 18 9 33 1 37 4 37 26 0 22 -4 25
-37 26 -31 0 -34 2 -18 9 24 10 106 13 129 4z m43 -56 c-2 -13 -4 -3 -4 22 0
25 2 35 4 23 2 -13 2 -33 0 -45z m730 -5 c-2 -16 -4 -5 -4 22 0 28 2 40 4 28
2 -13 2 -35 0 -50z m168 57 c15 -7 10 -9 -22 -9 -39 -1 -43 -3 -43 -26 0 -23
4 -25 43 -26 32 0 37 -2 22 -9 -24 -10 -106 -13 -129 -4 -19 7 -22 70 -3 77
20 9 110 6 132 -3z m-1065 -35 c0 -8 -4 -15 -10 -15 -5 0 -10 7 -10 15 0 8 5
15 10 15 6 0 10 -7 10 -15z m30 0 c0 -8 -4 -15 -10 -15 -5 0 -10 7 -10 15 0 8
5 15 10 15 6 0 10 -7 10 -15z m167 -7 c-3 -8 -6 -5 -6 6 -1 11 2 17 5 13 3 -3
4 -12 1 -19z m670 0 c-3 -8 -6 -5 -6 6 -1 11 2 17 5 13 3 -3 4 -12 1 -19z
m173 7 c0 -8 -4 -15 -10 -15 -5 0 -10 7 -10 15 0 8 5 15 10 15 6 0 10 -7 10
-15z m40 0 c0 -8 -4 -15 -10 -15 -5 0 -10 7 -10 15 0 8 5 15 10 15 6 0 10 -7
10 -15z m-956 -381 c22 -8 22 -70 0 -78 -23 -9 -105 -6 -129 4 -16 7 -13 9 18
9 33 1 37 4 37 26 0 22 -4 25 -37 26 -31 0 -34 2 -18 9 24 10 106 13 129 4z
m43 -61 c-2 -16 -4 -5 -4 22 0 28 2 40 4 28 2 -13 2 -35 0 -50z m730 0 c-2
-16 -4 -5 -4 22 0 28 2 40 4 28 2 -13 2 -35 0 -50z m168 57 c15 -7 10 -9 -22
-9 -39 -1 -43 -3 -43 -26 0 -23 4 -25 43 -26 32 0 37 -2 22 -9 -24 -10 -106
-13 -129 -4 -19 7 -22 70 -3 77 20 9 110 6 132 -3z m-1065 -35 c0 -8 -4 -15
-10 -15 -5 0 -10 7 -10 15 0 8 5 15 10 15 6 0 10 -7 10 -15z m30 0 c0 -8 -4
-15 -10 -15 -5 0 -10 7 -10 15 0 8 5 15 10 15 6 0 10 -7 10 -15z m167 -7 c-3
-8 -6 -5 -6 6 -1 11 2 17 5 13 3 -3 4 -12 1 -19z m670 0 c-3 -8 -6 -5 -6 6 -1
11 2 17 5 13 3 -3 4 -12 1 -19z m173 7 c0 -8 -4 -15 -10 -15 -5 0 -10 7 -10
15 0 8 5 15 10 15 6 0 10 -7 10 -15z m40 0 c0 -8 -4 -15 -10 -15 -5 0 -10 7
-10 15 0 8 5 15 10 15 6 0 10 -7 10 -15z m-190 -130 c0 -13 -48 -15 -370 -15
-322 0 -370 2 -370 15 0 13 48 15 370 15 322 0 370 -2 370 -15z m0 -50 c0 -13
-48 -15 -370 -15 -322 0 -370 2 -370 15 0 13 48 15 370 15 322 0 370 -2 370
-15z"/>
<path d="M549 711 c-17 -18 -29 -40 -29 -56 0 -35 50 -85 85 -85 35 0 85 50
85 85 0 35 -50 85 -85 85 -16 0 -38 -12 -56 -29z m99 -13 c7 -7 12 -26 12 -43
0 -39 -16 -55 -55 -55 -39 0 -55 16 -55 55 0 17 5 36 12 43 16 16 70 16 86 0z"/>
<path d="M549 311 c-17 -18 -29 -40 -29 -56 0 -35 50 -85 85 -85 35 0 85 50
85 85 0 35 -50 85 -85 85 -16 0 -38 -12 -56 -29z m99 -13 c7 -7 12 -26 12 -43
0 -17 -5 -36 -12 -43 -16 -16 -70 -16 -86 0 -7 7 -12 26 -12 43 0 39 16 55 55
55 17 0 36 -5 43 -12z"/>
</g>
</svg>
